<mxfile host="Electron" agent="Mozilla/5.0 (Windows NT 10.0; Win64; x64) AppleWebKit/537.36 (KHTML, like Gecko) draw.io/24.7.8 Chrome/128.0.6613.36 Electron/32.0.1 Safari/537.36" version="24.7.8">
  <diagram id="C5RBs43oDa-KdzZeNtuy" name="Page-1">
    <mxGraphModel dx="988" dy="570" grid="0" gridSize="10" guides="1" tooltips="1" connect="1" arrows="1" fold="1" page="0" pageScale="1" pageWidth="827" pageHeight="1169" math="0" shadow="0">
      <root>
        <mxCell id="WIyWlLk6GJQsqaUBKTNV-0" />
        <mxCell id="WIyWlLk6GJQsqaUBKTNV-1" parent="WIyWlLk6GJQsqaUBKTNV-0" />
        <mxCell id="emc-SJDjb3-GtYumTHaR-15" value="" style="edgeStyle=orthogonalEdgeStyle;rounded=0;orthogonalLoop=1;jettySize=auto;html=1;" parent="WIyWlLk6GJQsqaUBKTNV-1" source="emc-SJDjb3-GtYumTHaR-16" target="emc-SJDjb3-GtYumTHaR-27" edge="1">
          <mxGeometry relative="1" as="geometry" />
        </mxCell>
        <mxCell id="SCw9ndpxxCGw7AszbB7P-2" value="IMG" style="edgeLabel;html=1;align=center;verticalAlign=middle;resizable=0;points=[];" vertex="1" connectable="0" parent="emc-SJDjb3-GtYumTHaR-15">
          <mxGeometry x="0.0343" y="-1" relative="1" as="geometry">
            <mxPoint as="offset" />
          </mxGeometry>
        </mxCell>
        <mxCell id="emc-SJDjb3-GtYumTHaR-16" value="&lt;b&gt;Remoção de sombra de baínha&lt;/b&gt;" style="rounded=1;whiteSpace=wrap;html=1;absoluteArcSize=1;arcSize=14;strokeWidth=2;" parent="WIyWlLk6GJQsqaUBKTNV-1" vertex="1">
          <mxGeometry x="185.0490924922859" y="381.6666666666667" width="71.45662428130623" height="46.666666666666664" as="geometry" />
        </mxCell>
        <mxCell id="emc-SJDjb3-GtYumTHaR-23" value="" style="edgeStyle=orthogonalEdgeStyle;rounded=0;orthogonalLoop=1;jettySize=auto;html=1;" parent="WIyWlLk6GJQsqaUBKTNV-1" source="emc-SJDjb3-GtYumTHaR-24" target="emc-SJDjb3-GtYumTHaR-16" edge="1">
          <mxGeometry relative="1" as="geometry" />
        </mxCell>
        <mxCell id="SCw9ndpxxCGw7AszbB7P-1" value="IMG" style="edgeLabel;html=1;align=center;verticalAlign=middle;resizable=0;points=[];" vertex="1" connectable="0" parent="emc-SJDjb3-GtYumTHaR-23">
          <mxGeometry x="-0.2118" relative="1" as="geometry">
            <mxPoint x="5" as="offset" />
          </mxGeometry>
        </mxCell>
        <mxCell id="emc-SJDjb3-GtYumTHaR-24" value="&lt;b&gt;Correção de rotação&lt;/b&gt;" style="rounded=1;whiteSpace=wrap;html=1;absoluteArcSize=1;arcSize=14;strokeWidth=2;" parent="WIyWlLk6GJQsqaUBKTNV-1" vertex="1">
          <mxGeometry x="61.796234105489845" y="381.6666666666667" width="71.45662428130623" height="46.666666666666664" as="geometry" />
        </mxCell>
        <mxCell id="ZORtZoHT4SQhVtc5eLp2-9" value="" style="edgeStyle=orthogonalEdgeStyle;rounded=0;orthogonalLoop=1;jettySize=auto;html=1;" parent="WIyWlLk6GJQsqaUBKTNV-1" source="emc-SJDjb3-GtYumTHaR-27" target="ZORtZoHT4SQhVtc5eLp2-6" edge="1">
          <mxGeometry relative="1" as="geometry" />
        </mxCell>
        <mxCell id="SCw9ndpxxCGw7AszbB7P-3" value="IMG" style="edgeLabel;html=1;align=center;verticalAlign=middle;resizable=0;points=[];" vertex="1" connectable="0" parent="ZORtZoHT4SQhVtc5eLp2-9">
          <mxGeometry x="0.1484" relative="1" as="geometry">
            <mxPoint x="-2" as="offset" />
          </mxGeometry>
        </mxCell>
        <mxCell id="emc-SJDjb3-GtYumTHaR-27" value="&lt;b&gt;Upscaling&lt;/b&gt;" style="rounded=1;whiteSpace=wrap;html=1;absoluteArcSize=1;arcSize=14;strokeWidth=2;" parent="WIyWlLk6GJQsqaUBKTNV-1" vertex="1">
          <mxGeometry x="313.00195087908196" y="381.6666666666667" width="71.45662428130623" height="46.666666666666664" as="geometry" />
        </mxCell>
        <mxCell id="emc-SJDjb3-GtYumTHaR-29" value="" style="endArrow=classic;html=1;rounded=0;dashed=1;" parent="WIyWlLk6GJQsqaUBKTNV-1" edge="1">
          <mxGeometry width="50" height="50" relative="1" as="geometry">
            <mxPoint x="170.75776763602465" y="405" as="sourcePoint" />
            <mxPoint x="265.88439871051355" y="405" as="targetPoint" />
            <Array as="points">
              <mxPoint x="169.86455983250832" y="439.22222222222223" />
              <mxPoint x="265.88439871051355" y="440" />
            </Array>
          </mxGeometry>
        </mxCell>
        <mxCell id="emc-SJDjb3-GtYumTHaR-31" value="" style="endArrow=classic;html=1;rounded=0;dashed=1;" parent="WIyWlLk6GJQsqaUBKTNV-1" edge="1">
          <mxGeometry width="50" height="50" relative="1" as="geometry">
            <mxPoint x="301.1174182193044" y="405" as="sourcePoint" />
            <mxPoint x="393.1178219814862" y="405" as="targetPoint" />
            <Array as="points">
              <mxPoint x="301.1174182193044" y="370" />
              <mxPoint x="393.1178219814862" y="370" />
            </Array>
          </mxGeometry>
        </mxCell>
        <mxCell id="emc-SJDjb3-GtYumTHaR-33" value="" style="endArrow=classic;html=1;rounded=0;entryX=0;entryY=0.5;entryDx=0;entryDy=0;" parent="WIyWlLk6GJQsqaUBKTNV-1" target="emc-SJDjb3-GtYumTHaR-24" edge="1">
          <mxGeometry width="50" height="50" relative="1" as="geometry">
            <mxPoint x="13" y="405" as="sourcePoint" />
            <mxPoint x="52.864156070326544" y="393.3333333333333" as="targetPoint" />
          </mxGeometry>
        </mxCell>
        <mxCell id="SCw9ndpxxCGw7AszbB7P-0" value="IMG" style="edgeLabel;html=1;align=center;verticalAlign=middle;resizable=0;points=[];" vertex="1" connectable="0" parent="emc-SJDjb3-GtYumTHaR-33">
          <mxGeometry x="-0.4669" y="-1" relative="1" as="geometry">
            <mxPoint x="4" y="-1" as="offset" />
          </mxGeometry>
        </mxCell>
        <mxCell id="emc-SJDjb3-GtYumTHaR-34" value="" style="endArrow=classic;html=1;rounded=0;dashed=1;" parent="WIyWlLk6GJQsqaUBKTNV-1" edge="1">
          <mxGeometry width="50" height="50" relative="1" as="geometry">
            <mxPoint x="49" y="404" as="sourcePoint" />
            <mxPoint x="143.52474812723383" y="405" as="targetPoint" />
            <Array as="points">
              <mxPoint x="49" y="370" />
              <mxPoint x="143.52474812723383" y="370" />
            </Array>
          </mxGeometry>
        </mxCell>
        <mxCell id="ZORtZoHT4SQhVtc5eLp2-11" value="" style="edgeStyle=orthogonalEdgeStyle;rounded=0;orthogonalLoop=1;jettySize=auto;html=1;" parent="WIyWlLk6GJQsqaUBKTNV-1" source="ZORtZoHT4SQhVtc5eLp2-0" target="ZORtZoHT4SQhVtc5eLp2-3" edge="1">
          <mxGeometry relative="1" as="geometry" />
        </mxCell>
        <mxCell id="SCw9ndpxxCGw7AszbB7P-5" value="IMG" style="edgeLabel;html=1;align=center;verticalAlign=middle;resizable=0;points=[];" vertex="1" connectable="0" parent="ZORtZoHT4SQhVtc5eLp2-11">
          <mxGeometry x="0.0523" y="2" relative="1" as="geometry">
            <mxPoint x="-2" y="2" as="offset" />
          </mxGeometry>
        </mxCell>
        <mxCell id="ZORtZoHT4SQhVtc5eLp2-0" value="&lt;b&gt;Remoção de ruído&lt;/b&gt;" style="rounded=1;whiteSpace=wrap;html=1;absoluteArcSize=1;arcSize=14;strokeWidth=2;" parent="WIyWlLk6GJQsqaUBKTNV-1" vertex="1">
          <mxGeometry x="553.0019508790821" y="381.1666666666667" width="71.45662428130623" height="46.666666666666664" as="geometry" />
        </mxCell>
        <mxCell id="ZORtZoHT4SQhVtc5eLp2-17" style="edgeStyle=orthogonalEdgeStyle;rounded=0;orthogonalLoop=1;jettySize=auto;html=1;" parent="WIyWlLk6GJQsqaUBKTNV-1" source="ZORtZoHT4SQhVtc5eLp2-3" edge="1">
          <mxGeometry relative="1" as="geometry">
            <mxPoint x="789" y="405" as="targetPoint" />
          </mxGeometry>
        </mxCell>
        <mxCell id="SCw9ndpxxCGw7AszbB7P-6" value="IMG" style="edgeLabel;html=1;align=center;verticalAlign=middle;resizable=0;points=[];" vertex="1" connectable="0" parent="ZORtZoHT4SQhVtc5eLp2-17">
          <mxGeometry x="-0.1515" relative="1" as="geometry">
            <mxPoint x="3" as="offset" />
          </mxGeometry>
        </mxCell>
        <mxCell id="ZORtZoHT4SQhVtc5eLp2-3" value="&lt;b&gt;&lt;font style=&quot;font-size: 11px;&quot;&gt;Correção de iluminação&lt;/font&gt;&lt;/b&gt;" style="rounded=1;whiteSpace=wrap;html=1;absoluteArcSize=1;arcSize=14;strokeWidth=2;" parent="WIyWlLk6GJQsqaUBKTNV-1" vertex="1">
          <mxGeometry x="673.0019508790821" y="381.1666666666667" width="71.45662428130623" height="46.666666666666664" as="geometry" />
        </mxCell>
        <mxCell id="ZORtZoHT4SQhVtc5eLp2-10" value="" style="edgeStyle=orthogonalEdgeStyle;rounded=0;orthogonalLoop=1;jettySize=auto;html=1;" parent="WIyWlLk6GJQsqaUBKTNV-1" source="ZORtZoHT4SQhVtc5eLp2-6" target="ZORtZoHT4SQhVtc5eLp2-0" edge="1">
          <mxGeometry relative="1" as="geometry" />
        </mxCell>
        <mxCell id="SCw9ndpxxCGw7AszbB7P-4" value="IMG" style="edgeLabel;html=1;align=center;verticalAlign=middle;resizable=0;points=[];" vertex="1" connectable="0" parent="ZORtZoHT4SQhVtc5eLp2-10">
          <mxGeometry x="-0.2983" y="-1" relative="1" as="geometry">
            <mxPoint x="3" y="-1" as="offset" />
          </mxGeometry>
        </mxCell>
        <mxCell id="ZORtZoHT4SQhVtc5eLp2-6" value="&lt;b style=&quot;font-size: 11px;&quot;&gt;Remoção de ilustrações&lt;/b&gt;" style="rounded=1;whiteSpace=wrap;html=1;absoluteArcSize=1;arcSize=14;strokeWidth=2;fontSize=11;" parent="WIyWlLk6GJQsqaUBKTNV-1" vertex="1">
          <mxGeometry x="433.001950879082" y="381.6666666666667" width="71.45662428130623" height="46.666666666666664" as="geometry" />
        </mxCell>
        <mxCell id="ZORtZoHT4SQhVtc5eLp2-13" value="" style="endArrow=classic;html=1;rounded=0;dashed=1;" parent="WIyWlLk6GJQsqaUBKTNV-1" edge="1">
          <mxGeometry width="50" height="50" relative="1" as="geometry">
            <mxPoint x="414.89776763602464" y="406" as="sourcePoint" />
            <mxPoint x="510.02439871051354" y="406" as="targetPoint" />
            <Array as="points">
              <mxPoint x="414.00455983250833" y="440.22222222222223" />
              <mxPoint x="510.02439871051354" y="441" />
            </Array>
          </mxGeometry>
        </mxCell>
        <mxCell id="ZORtZoHT4SQhVtc5eLp2-14" value="" style="endArrow=classic;html=1;rounded=0;dashed=1;" parent="WIyWlLk6GJQsqaUBKTNV-1" edge="1">
          <mxGeometry width="50" height="50" relative="1" as="geometry">
            <mxPoint x="535.9974182193043" y="404.5" as="sourcePoint" />
            <mxPoint x="631" y="402.5" as="targetPoint" />
            <Array as="points">
              <mxPoint x="535.9974182193043" y="369.5" />
              <mxPoint x="631" y="369.5" />
            </Array>
          </mxGeometry>
        </mxCell>
        <mxCell id="ZORtZoHT4SQhVtc5eLp2-16" value="" style="endArrow=classic;html=1;rounded=0;dashed=1;" parent="WIyWlLk6GJQsqaUBKTNV-1" edge="1">
          <mxGeometry width="50" height="50" relative="1" as="geometry">
            <mxPoint x="656.8977676360246" y="405.5" as="sourcePoint" />
            <mxPoint x="752.0243987105135" y="405.5" as="targetPoint" />
            <Array as="points">
              <mxPoint x="656.0045598325083" y="439.72222222222223" />
              <mxPoint x="752.0243987105135" y="440.5" />
            </Array>
          </mxGeometry>
        </mxCell>
      </root>
    </mxGraphModel>
  </diagram>
</mxfile>
